<?xml version="1.0" encoding="UTF-8"?>
<svg id="Layer_2" data-name="Layer 2" xmlns="http://www.w3.org/2000/svg" viewBox="0 0 359.42 82.32">
  <defs>
    <style>
      .cls-1 {
        fill: #1a171b;
      }

      .cls-2 {
        fill: #1a2862;
      }
    </style>
  </defs>
  <g id="Layer_1-2" data-name="Layer 1">
    <path class="cls-2" d="M31.26,55.05c2.31,5.83,5.03,11.49,8.2,16.89-5.65-2.94-10.37-7.12-16.02-10.01-4.44-2.27-9.28-3.46-14.2-4.07-.51-.06-.96,.35-1.02,.84-.78,6.02,5.12,11.16,10.3,13.14,7.21,2.75,15.25,.17,22.43,3.17,.15,.06,.28,.06,.41,.05,1.47,2.47,3.02,4.9,4.63,7.27,1.11-.09,2.22-.19,3.33-.28-2.12-2.71-4.23-5.42-6.28-8.18-9.32-14.87-15.35-31.7-17.47-49.45-.01-.13-.06-.25-.12-.35,.35-4.03,1.76-8.34,1.08-12.21-.84-4.84-3.74-8.91-7.75-11.65-.42-.29-1.01-.28-1.34,.15-6.58,8.58-2.19,21.23,5.34,27.9,.31,.43,.65,.83,1.02,1.21,.3,6.52,1.58,13.01,4.09,19.04-.24-.12-.47-.24-.7-.37-.06-.14-.15-.27-.33-.31-.1-.03-.19-.04-.29-.06-4.97-3.47-6.32-11.44-10.87-15.7-3.97-3.72-9.25-5.39-14.62-5.14-.56,.03-1.08,.43-1.08,1.03-.1,11.97,12.21,20.23,23.31,21.12,1.27,.4,2.63,.61,3.82,.54,.44,.16,.9,.25,1.37,.3,.8,1.77,1.75,3.48,2.77,5.14ZM6.18,38.31c1.38,.23,2.89,.24,4.24-.16,1.57,1.47,3.17,2.92,4.83,4.22-1.56-.14-3.13-.27-4.7-.31-.02,0-.03,.02-.06,.02-1.63-1.07-3.09-2.34-4.31-3.77Zm-2.89-4.83c.86,.2,1.77,.3,2.63,.3,1.33,1.32,2.69,2.65,4.07,3.97-1.26-.16-2.57-.18-3.82-.14-.17,0-.28,.14-.33,.28-1.08-1.33-1.92-2.82-2.55-4.4Zm1.42-.88c-.6-.14-1.22-.18-1.81-.12-.22-.7-.4-1.42-.52-2.16,.76,.73,1.55,1.51,2.33,2.27Zm5.31,2.5c-2.13-2.16-4.25-4.47-6.78-6.07,2.21,.08,4.17,.52,5.94,1.25,.23,1.61,.53,3.22,.85,4.82Zm3.46-2.15c.12,2.09,.52,4.27,1.08,6.27-.92-.74-1.83-1.5-2.69-2.3-.07-.07-.14-.15-.22-.21-.26-2.04-.77-4.15-1.64-6.05,1.25,.61,2.39,1.39,3.46,2.29Zm9.31,13.06c-2.23-2.2-4.8-4.1-7.3-6.06,.18-.11,.32-.29,.28-.57-.26-1.84-.73-3.78-1.36-5.59,2.42,2.32,4.41,5.34,6.22,8.73,.59,1.11,1.31,2.34,2.16,3.49Zm1.07,1.37s-.05-.01-.08-.01c-3.9-1.58-7.96-2.33-11.7-4.33,1.27,.12,2.54,.04,3.79-.21,2.53,1.92,5.18,3.55,8,4.56Zm-5.9-29.59c.85,.77,1.81,1.41,2.85,1.91,.71,2.51,1.64,4.88,2.91,7,0,.03,0,.06,0,.09-1.9-3.04-4.23-5.69-5.76-8.99Zm-1.69-6.61c.87,.91,1.95,1.74,3.15,2.18,.33,1.92,.7,3.82,1.19,5.67-1.05-.95-2.12-1.89-3.22-2.78-.02-.01-.04,0-.05-.02-.59-1.66-.96-3.36-1.06-5.06Zm2.05-4.91c-.36-.43-.78-.79-1.24-1.06,.22-.63,.48-1.24,.8-1.84,.16,.94,.3,1.93,.44,2.91Zm1.01,6.58c-.82-.8-1.75-1.53-2.68-2.18-.13-.09-.28-.05-.39,.03-.05-1.55,.14-3.08,.55-4.56,.51,.61,1.12,1.18,1.73,1.64,.25,1.67,.5,3.37,.78,5.08Zm3.47-5.84c-.71,1.29-1.37,2.61-2.01,3.94-.36-2.72-.64-5.53-1.59-8.07,1.56,1.26,2.73,2.64,3.6,4.13Zm1.65,4.27c-1.04,1.57-1.95,3.36-2.63,5.11-.26-1.04-.5-2.08-.69-3.12-.02-.09-.03-.18-.04-.27,.92-1.61,1.69-3.41,2.11-5.25,.57,1.12,.97,2.3,1.25,3.53Zm-.04,10.79c-.08,.48-.14,1-.2,1.53-.21,.08-.39,.22-.5,.41-.44-2.2-1.03-4.4-1.61-6.59,.19,.02,.39-.04,.51-.26,.81-1.47,1.53-3.12,2.06-4.77,.49,2.99,.28,6.24-.26,9.68Zm-3.32,47.34c.96-.14,1.91-.43,2.82-.77,1.5,.55,3.01,1.03,4.49,1.42-.99,.02-1.98,.04-2.96,.02-1.65-.04-3.08-.28-4.35-.67Zm-7.9-6.46c1.37,1.05,2.88,2.01,4.47,2.87-.35,.02-.7,.09-1.07,.24-.16,.06-.08,.32,.09,.29,.56-.12,1.13-.17,1.7-.16,1.39,.73,2.83,1.4,4.29,1.98-1.04,.11-2.07,.27-3.05,.62-.03,.01-.04,.04-.06,.06-2.68-1.22-4.58-3.28-6.37-5.9Zm6.33-1.41c.49,1.43,1.14,2.88,1.82,4.26-1.08-.48-2.11-1.01-3.11-1.57-.62-1.29-1.48-2.56-2.33-3.64-.15-.19-.39,.02-.33,.21,.25,.79,.55,1.61,.91,2.4-1.83-1.13-3.58-2.36-5.35-3.64,.29-.03,.68,.05,1.18,.27,1.6-.39,3.9,.63,5.37,1.07,.63,.19,1.24,.42,1.86,.64Zm5.95,2.96c.28,1.14,.79,2.35,1.42,3.36-1.47-.5-2.94-1-4.37-1.58-.45-1.57-1.29-3.22-2.37-4.52,1.86,.74,3.61,1.69,5.32,2.74Zm8.74,5.92c-.32-.07-.66-.1-.99-.14-1.75-.82-3.58-1.47-5.43-2.1,0-.01,0-.02,0-.03-.28-1.02-.78-2.11-1.38-3.06,.18,.12,.37,.21,.54,.33,2.39,1.61,4.71,3.55,7.24,5.01Z"/>
    <g>
      <path class="cls-2" d="M88.62,45.26v4.6h-23.55V16.86h5.35v28.4h18.2Z"/>
      <path class="cls-2" d="M117.12,37.36c0,8.15-4.65,13-12.45,13s-12.45-4.85-12.45-13,4.65-13,12.45-13,12.45,4.85,12.45,13Zm-19.5,0c0,5.65,2.55,8.8,7.05,8.8s7.1-3.15,7.1-8.8-2.6-8.8-7.1-8.8-7.05,3.15-7.05,8.8Z"/>
      <path class="cls-2" d="M139.62,24.86l-.85,4.9c-.7-.4-1.8-.65-3.15-.65-3,0-6.3,2.4-6.3,7.5v13.25h-5.35V24.86h4.55l.45,4.5c1.35-3.25,4-5,7.9-5,1,0,2.05,.15,2.75,.5Z"/>
      <path class="cls-2" d="M166.17,39.36h-18.3c.6,4.4,3.25,6.75,7.25,6.75,3.3,0,5.5-1.2,6.3-3.4l4.45,1.85c-1.8,3.7-5.25,5.8-10.75,5.8-7.9,0-12.55-4.85-12.55-13s4.4-13,12.2-13,11.6,5,11.6,12.25c0,.95-.1,2.1-.2,2.75Zm-18.3-4.1h13.5c-.55-4.2-2.9-6.65-6.6-6.65-3.9,0-6.3,2.35-6.9,6.65Z"/>
      <path class="cls-2" d="M212.42,33.66v16.2h-5.35v-15.35c0-4.1-2.2-5.75-5.15-5.75-3.5,0-6.5,2.65-6.5,7.5v13.6h-5.35v-15.35c0-4.1-2.2-5.75-5.15-5.75s-6.5,2.2-6.5,7.8v13.3h-5.35V24.86h4.75l.25,4.15c1.75-3.15,4.85-4.65,8.1-4.65,3.6,0,6.9,1.6,8.45,5,1.6-3.4,5.25-5,8.6-5,4.8,0,9.2,2.95,9.2,9.3Z"/>
      <path class="cls-2" d="M224.47,49.86h-2.85V16.86h2.85V49.86Z"/>
      <path class="cls-2" d="M257.32,37.36c0,8.15-4.35,13-11.4,13-4.25,0-7.5-2.1-9-5.45v15.45h-2.85V24.86h2.55l.15,5.3c1.45-3.55,4.75-5.8,9.15-5.8,7.05,0,11.4,4.85,11.4,13Zm-2.85,0c0-6.5-3.3-10.5-8.9-10.5-5.05,0-8.5,3.7-8.65,9.8v1.4c.15,6.1,3.55,9.8,8.65,9.8,5.6,0,8.9-4,8.9-10.5Z"/>
      <path class="cls-2" d="M262.47,44.56l2.35-1.55c1.1,3.3,4.4,4.85,8.5,4.85,4.55,0,7-1.9,7-4.5,0-2.3-1.75-3.6-7.25-4.55-7.1-1.3-9.6-3.2-9.6-7.2s3.8-7.25,9.65-7.25c5.25,0,8.4,1.9,9.65,6.1l-2.4,1.4c-1.05-3.55-3.55-5-7.25-5-3.9,0-6.8,2.05-6.8,4.45,0,2.55,1.85,3.9,7.5,4.85,6.9,1.15,9.35,3.15,9.35,7.05,0,4.3-3.95,7.15-10.15,7.15-4.85,0-9-1.9-10.55-5.8Z"/>
      <path class="cls-2" d="M311.22,24.86v25h-2.5l-.2-4.65c-1.65,3.4-5.1,5.15-9.45,5.15-5.2,0-9.05-2.8-9.05-9.05V24.86h2.85v15.75c0,5.2,2.5,7.25,6.7,7.25,5.3,0,8.8-3.7,8.8-8.85v-14.15h2.85Z"/>
      <path class="cls-2" d="M359.42,33.66v16.15h-2.85v-15.85c0-4.85-2.9-7.15-6.9-7.15-4.6,0-8.45,3.55-8.45,8.85v14.2h-2.85v-15.85c0-4.85-2.85-7.15-6.85-7.15-4.25,0-8.45,3.2-8.45,9.05v13.95h-2.85V24.86h2.55l.15,4.7c1.7-3.4,5.15-5.2,8.85-5.2,4,0,7.5,1.85,8.85,5.6,1.45-3.65,5.5-5.65,9.3-5.65,5.15,0,9.5,3.05,9.5,9.35Z"/>
    </g>
    <g>
      <path class="cls-1" d="M69.03,59.26c2.15,0,3.47,1.27,3.47,3.34,0,1.72-1.31,3.39-3.02,3.39,.38,.18,.93,.76,1.27,1.25,0,0,1.53,2.19,2.22,2.94,.71,.78,1.37,1.33,2.42,1.34v.18h-.97c-1.65,0-2.54-.89-3.1-1.56-.2-.24-2.2-3.15-2.34-3.32-.46-.58-.98-1.2-1.63-1.2v-.17s.4,0,.94,0c.92-.02,2.27-.24,2.77-1.84,.08-.25,.12-.67,.11-1.06-.04-1.61-.88-2.63-2.2-2.71-.91-.05-1.98,0-2.21-.01v10.59c.01,.62,.52,1.12,1.14,1.12h.23v.18s-3.88,0-3.88,0v-.18h.23c.62,0,1.12-.49,1.14-1.11v-9.85c-.01-.62-.52-1.12-1.14-1.12h-.22v-.18s4.79,0,4.79,0Z"/>
      <path class="cls-1" d="M87.35,71.69h-7.36v-.18h.23c.62,0,1.13-.5,1.14-1.12v-9.95c-.06-.57-.54-1.02-1.13-1.02h-.22v-.18s5.19,0,5.19,0c.77,0,1.79-.18,2.12-.32v2.24h-.18v-.32c0-.56-.44-1.02-.99-1.06h-3.62v5.49h3c.48,0,.86-.4,.86-.88v-.26h.17s0,2.81,0,2.81h-.17v-.26c0-.47-.37-.86-.84-.88h-3.02v5.32h2.55c1.88,0,2.6-.97,3.15-2.33h.18l-1.03,2.87Z"/>
      <path class="cls-1" d="M99.96,66.45c.71,.66,.89,1.45,.89,2.17,0,1.96-1.28,3.32-3.33,3.32-.87,0-2.31-.25-3.01-.97-.13-.55-.07-1.68,.21-2.48h.16c-.18,1.83,.98,3,2.56,2.91,1.3-.07,2.38-.96,2.38-2.38,0-.69-.25-1.24-.7-1.66l-3.4-3.16c-.72-.66-.96-1.51-.96-2.2,0-1.5,1.1-3,3.12-3,.47,0,1.05,.08,1.52,.18h.7v2.18h-.17c0-1.14-.89-1.83-2-1.83-1.31,0-2.18,.96-2.18,2.04,0,.46,.16,1.12,.71,1.64l3.49,3.23Z"/>
      <path class="cls-1" d="M114.62,59.24c.77,0,1.81-.18,2.14-.32v2.23h-.18v-.32c0-.57-.45-1.03-1.01-1.06h-3.37v10.64c.02,.61,.52,1.1,1.14,1.1h.22v.18s-3.89,0-3.89,0v-.18h.23c.61,0,1.11-.48,1.14-1.09v-10.65h-3.37c-.56,.02-1.01,.49-1.01,1.06v.32h-.18s0-2.23,0-2.23c.33,.14,1.37,.32,2.14,.32h6Z"/>
      <path class="cls-1" d="M131.25,70.4c.36,.79,1.02,1.12,1.56,1.12h.15v.18h-4v-.18h.16c.46,0,.93-.4,.67-1.12l-1.14-3.03h-4.78l-1.19,3.04c-.25,.7,.22,1.1,.68,1.1h.16v.18h-3.57v-.18h.16c.54,0,1.2-.33,1.56-1.12l4.03-9.56s.66-1.44,.66-1.83h.16l4.75,11.39Zm-2.8-3.55l-2.14-5.7-2.23,5.7h4.38Z"/>
      <path class="cls-1" d="M149.46,59.26v.18h-.29c-.5,0-.91,.35-.94,.84v7.02c0,2.78-1.92,4.64-4.79,4.64s-4.93-1.84-4.93-4.61v-7.01c0-.51-.43-.88-.94-.88h-.29v-.18h3.61v.18h-.29c-.5,0-.91,.36-.94,.85v6.78c0,2.59,1.51,4.31,3.77,4.31s3.95-1.63,3.96-4.08v-7.01c-.02-.5-.43-.85-.94-.85h-.29v-.18h3.29Z"/>
      <path class="cls-1" d="M160.23,59.26c2.15,0,3.47,1.27,3.47,3.34,0,1.72-1.31,3.39-3.02,3.39,.38,.18,.93,.76,1.27,1.25,0,0,1.53,2.19,2.22,2.94,.71,.78,1.37,1.33,2.42,1.34v.18h-.97c-1.65,0-2.54-.89-3.1-1.56-.2-.24-2.2-3.15-2.34-3.32-.46-.58-.98-1.2-1.63-1.2v-.17s.4,0,.94,0c.92-.02,2.27-.24,2.77-1.84,.08-.25,.12-.67,.11-1.06-.04-1.61-.88-2.63-2.2-2.71-.91-.05-1.98,0-2.21-.01v10.59c.01,.62,.52,1.12,1.14,1.12h.23v.18s-3.88,0-3.88,0v-.18h.23c.62,0,1.12-.49,1.14-1.11v-9.85c-.01-.62-.52-1.12-1.14-1.12h-.22v-.18s4.79,0,4.79,0Z"/>
      <path class="cls-1" d="M181.26,70.4c.36,.79,1.02,1.12,1.56,1.12h.15v.18h-4v-.18h.16c.46,0,.93-.4,.67-1.12l-1.14-3.03h-4.78l-1.19,3.04c-.25,.7,.22,1.1,.68,1.1h.16v.18h-3.57v-.18h.16c.54,0,1.2-.33,1.56-1.12l4.03-9.56s.66-1.44,.66-1.83h.16l4.75,11.39Zm-2.8-3.55l-2.14-5.7-2.23,5.7h4.37Z"/>
      <path class="cls-1" d="M201.18,59.26v.18h-.33c-.59,0-1.08,.47-1.1,1.06v9.18c0,1.14,.16,2.27,.16,2.27h-.16l-9.69-10.33v8.84c.02,.59,.5,1.06,1.1,1.06h.33v.18s-3.66,0-3.66,0v-.18h.33c.6,0,1.08-.48,1.1-1.08v-9.23c0-1.21-.16-2.22-.16-2.22h.17l9.67,10.33v-8.81c-.01-.6-.5-1.08-1.1-1.08h-.33v-.18s3.66,0,3.66,0Z"/>
      <path class="cls-1" d="M214.72,59.24c.77,0,1.81-.18,2.14-.32v2.23h-.18v-.32c0-.57-.45-1.03-1.01-1.06h-3.37v10.64c.02,.61,.52,1.1,1.14,1.1h.22v.18s-3.89,0-3.89,0v-.18h.23c.61,0,1.11-.48,1.14-1.09v-10.65h-3.37c-.56,.02-1.01,.49-1.01,1.06v.32h-.18s0-2.23,0-2.23c.33,.14,1.37,.32,2.14,.32h6Z"/>
    </g>
  </g>
</svg>